<svg xmlns="http://www.w3.org/2000/svg" xmlns:xlink="http://www.w3.org/1999/xlink" width="500" zoomAndPan="magnify" viewBox="0 0 375 374.999991" height="500" preserveAspectRatio="xMidYMid meet" version="1.0"><defs><g/><clipPath id="id1"><path d="M 95.773438 146.28125 L 131.023438 146.28125 L 131.023438 194 L 95.773438 194 Z M 95.773438 146.28125 " clip-rule="nonzero"/></clipPath><clipPath id="id2"><path d="M 95.773438 181 L 131.023438 181 L 131.023438 228.78125 L 95.773438 228.78125 Z M 95.773438 181 " clip-rule="nonzero"/></clipPath><clipPath id="id3"><path d="M 95.773438 169 L 131.023438 169 L 131.023438 206 L 95.773438 206 Z M 95.773438 169 " clip-rule="nonzero"/></clipPath></defs><g clip-path="url(#id1)"><path fill="#ffcc00" d="M 131.015625 146.28125 L 131.015625 169.851562 L 95.78125 193.425781 L 95.78125 169.851562 L 131.015625 146.28125 " fill-opacity="1" fill-rule="nonzero"/></g><g clip-path="url(#id2)"><path fill="#00ca72" d="M 131.015625 181.640625 L 131.015625 205.210938 L 95.78125 228.78125 L 95.78125 205.210938 L 131.015625 181.640625 " fill-opacity="1" fill-rule="nonzero"/></g><g clip-path="url(#id3)"><path fill="#fb275d" d="M 95.78125 193.425781 L 131.015625 205.210938 L 131.015625 181.640625 L 95.78125 169.851562 " fill-opacity="1" fill-rule="nonzero"/></g><g fill="#1b1b1b" fill-opacity="1"><g transform="translate(137.749155, 197.999987)"><g><path d="M 9.484375 0.21875 C 7.804688 0.21875 6.320312 -0.0507812 5.03125 -0.59375 C 3.738281 -1.144531 2.710938 -1.898438 1.953125 -2.859375 C 1.191406 -3.828125 0.757812 -4.921875 0.65625 -6.140625 L 7.375 -6.140625 C 7.457031 -5.617188 7.679688 -5.226562 8.046875 -4.96875 C 8.410156 -4.71875 8.878906 -4.59375 9.453125 -4.59375 C 9.804688 -4.59375 10.085938 -4.671875 10.296875 -4.828125 C 10.503906 -4.992188 10.609375 -5.191406 10.609375 -5.421875 C 10.609375 -5.816406 10.390625 -6.097656 9.953125 -6.265625 C 9.515625 -6.429688 8.769531 -6.617188 7.71875 -6.828125 C 6.4375 -7.085938 5.378906 -7.363281 4.546875 -7.65625 C 3.722656 -7.945312 3 -8.445312 2.375 -9.15625 C 1.757812 -9.875 1.453125 -10.863281 1.453125 -12.125 C 1.453125 -13.21875 1.738281 -14.207031 2.3125 -15.09375 C 2.894531 -15.988281 3.75 -16.691406 4.875 -17.203125 C 6.007812 -17.722656 7.390625 -17.984375 9.015625 -17.984375 C 11.398438 -17.984375 13.269531 -17.394531 14.625 -16.21875 C 15.976562 -15.039062 16.796875 -13.507812 17.078125 -11.625 L 10.875 -11.625 C 10.757812 -12.101562 10.535156 -12.472656 10.203125 -12.734375 C 9.867188 -13.003906 9.414062 -13.140625 8.84375 -13.140625 C 8.488281 -13.140625 8.21875 -13.066406 8.03125 -12.921875 C 7.84375 -12.785156 7.75 -12.582031 7.75 -12.3125 C 7.75 -11.957031 7.96875 -11.691406 8.40625 -11.515625 C 8.851562 -11.335938 9.554688 -11.15625 10.515625 -10.96875 C 11.796875 -10.707031 12.878906 -10.421875 13.765625 -10.109375 C 14.648438 -9.796875 15.414062 -9.253906 16.0625 -8.484375 C 16.71875 -7.722656 17.046875 -6.671875 17.046875 -5.328125 C 17.046875 -4.273438 16.738281 -3.328125 16.125 -2.484375 C 15.519531 -1.648438 14.644531 -0.988281 13.5 -0.5 C 12.351562 -0.0195312 11.015625 0.21875 9.484375 0.21875 Z M 9.484375 0.21875 "/></g></g></g><g fill="#1b1b1b" fill-opacity="1"><g transform="translate(155.987683, 197.999987)"><g><path d="M 20.375 -17.765625 L 20.375 0 L 13.390625 0 L 13.390625 -2.703125 C 12.835938 -1.867188 12.101562 -1.1875 11.1875 -0.65625 C 10.28125 -0.132812 9.195312 0.125 7.9375 0.125 C 5.894531 0.125 4.300781 -0.554688 3.15625 -1.921875 C 2.019531 -3.285156 1.453125 -5.132812 1.453125 -7.46875 L 1.453125 -17.765625 L 8.40625 -17.765625 L 8.40625 -8.34375 C 8.40625 -7.507812 8.628906 -6.84375 9.078125 -6.34375 C 9.535156 -5.851562 10.144531 -5.609375 10.90625 -5.609375 C 11.675781 -5.609375 12.28125 -5.851562 12.71875 -6.34375 C 13.164062 -6.84375 13.390625 -7.507812 13.390625 -8.34375 L 13.390625 -17.765625 Z M 20.375 -17.765625 "/></g></g></g><g fill="#1b1b1b" fill-opacity="1"><g transform="translate(177.943206, 197.999987)"><g><path d="M 14.015625 -17.890625 C 16.054688 -17.890625 17.644531 -17.207031 18.78125 -15.84375 C 19.925781 -14.476562 20.5 -12.628906 20.5 -10.296875 L 20.5 0 L 13.546875 0 L 13.546875 -9.421875 C 13.546875 -10.253906 13.316406 -10.914062 12.859375 -11.40625 C 12.410156 -11.90625 11.8125 -12.15625 11.0625 -12.15625 C 10.28125 -12.15625 9.664062 -11.90625 9.21875 -11.40625 C 8.78125 -10.914062 8.5625 -10.253906 8.5625 -9.421875 L 8.5625 0 L 1.578125 0 L 1.578125 -17.765625 L 8.5625 -17.765625 L 8.5625 -15.0625 C 9.113281 -15.894531 9.84375 -16.570312 10.75 -17.09375 C 11.664062 -17.625 12.753906 -17.890625 14.015625 -17.890625 Z M 14.015625 -17.890625 "/></g></g></g><g fill="#1b1b1b" fill-opacity="1"><g transform="translate(199.898729, 197.999987)"><g><path d="M 0.625 -8.890625 C 0.625 -10.753906 0.941406 -12.375 1.578125 -13.75 C 2.222656 -15.125 3.101562 -16.171875 4.21875 -16.890625 C 5.332031 -17.617188 6.582031 -17.984375 7.96875 -17.984375 C 9.125 -17.984375 10.113281 -17.742188 10.9375 -17.265625 C 11.769531 -16.796875 12.410156 -16.15625 12.859375 -15.34375 L 12.859375 -23.3125 L 19.84375 -23.3125 L 19.84375 0 L 12.859375 0 L 12.859375 -2.421875 C 12.410156 -1.609375 11.769531 -0.960938 10.9375 -0.484375 C 10.113281 -0.015625 9.125 0.21875 7.96875 0.21875 C 6.582031 0.21875 5.332031 -0.140625 4.21875 -0.859375 C 3.101562 -1.585938 2.222656 -2.640625 1.578125 -4.015625 C 0.941406 -5.390625 0.625 -7.015625 0.625 -8.890625 Z M 12.890625 -8.890625 C 12.890625 -9.828125 12.644531 -10.554688 12.15625 -11.078125 C 11.675781 -11.609375 11.054688 -11.875 10.296875 -11.875 C 9.546875 -11.875 8.925781 -11.609375 8.4375 -11.078125 C 7.957031 -10.554688 7.71875 -9.828125 7.71875 -8.890625 C 7.71875 -7.941406 7.957031 -7.203125 8.4375 -6.671875 C 8.925781 -6.148438 9.546875 -5.890625 10.296875 -5.890625 C 11.054688 -5.890625 11.675781 -6.148438 12.15625 -6.671875 C 12.644531 -7.203125 12.890625 -7.941406 12.890625 -8.890625 Z M 12.890625 -8.890625 "/></g></g></g><g fill="#1b1b1b" fill-opacity="1"><g transform="translate(221.31876, 197.999987)"><g><path d="M 0.625 -8.890625 C 0.625 -10.753906 0.941406 -12.375 1.578125 -13.75 C 2.222656 -15.125 3.101562 -16.171875 4.21875 -16.890625 C 5.332031 -17.617188 6.582031 -17.984375 7.96875 -17.984375 C 9.125 -17.984375 10.117188 -17.742188 10.953125 -17.265625 C 11.796875 -16.796875 12.441406 -16.15625 12.890625 -15.34375 L 12.890625 -17.765625 L 19.84375 -17.765625 L 19.84375 0 L 12.890625 0 L 12.890625 -2.421875 C 12.441406 -1.609375 11.796875 -0.960938 10.953125 -0.484375 C 10.117188 -0.015625 9.125 0.21875 7.96875 0.21875 C 6.582031 0.21875 5.332031 -0.140625 4.21875 -0.859375 C 3.101562 -1.585938 2.222656 -2.640625 1.578125 -4.015625 C 0.941406 -5.390625 0.625 -7.015625 0.625 -8.890625 Z M 12.890625 -8.890625 C 12.890625 -9.828125 12.644531 -10.554688 12.15625 -11.078125 C 11.675781 -11.609375 11.054688 -11.875 10.296875 -11.875 C 9.546875 -11.875 8.925781 -11.609375 8.4375 -11.078125 C 7.957031 -10.554688 7.71875 -9.828125 7.71875 -8.890625 C 7.71875 -7.941406 7.957031 -7.203125 8.4375 -6.671875 C 8.925781 -6.148438 9.546875 -5.890625 10.296875 -5.890625 C 11.054688 -5.890625 11.675781 -6.148438 12.15625 -6.671875 C 12.644531 -7.203125 12.890625 -7.941406 12.890625 -8.890625 Z M 12.890625 -8.890625 "/></g></g></g><g fill="#1b1b1b" fill-opacity="1"><g transform="translate(242.738791, 197.999987)"><g><path d="M 21.640625 -17.765625 L 10.265625 8.5 L 2.609375 8.5 L 7.09375 -0.875 L -0.3125 -17.765625 L 7.46875 -17.765625 L 10.796875 -8.75 L 13.921875 -17.765625 Z M 21.640625 -17.765625 "/></g></g></g><g fill="#1b1b1b" fill-opacity="1"><g transform="translate(259.971842, 199.570796)"><g><path d="M 1.96875 0.109375 C 1.644531 0.109375 1.367188 0 1.140625 -0.21875 C 0.921875 -0.445312 0.8125 -0.71875 0.8125 -1.03125 C 0.8125 -1.351562 0.921875 -1.625 1.140625 -1.84375 C 1.367188 -2.070312 1.644531 -2.1875 1.96875 -2.1875 C 2.269531 -2.1875 2.53125 -2.070312 2.75 -1.84375 C 2.96875 -1.625 3.078125 -1.351562 3.078125 -1.03125 C 3.078125 -0.71875 2.96875 -0.445312 2.75 -0.21875 C 2.53125 0 2.269531 0.109375 1.96875 0.109375 Z M 1.96875 0.109375 "/></g></g></g><g fill="#1b1b1b" fill-opacity="1"><g transform="translate(263.855211, 199.570796)"><g><path d="M 3.109375 -12.890625 L 3.109375 0 L 1.421875 0 L 1.421875 -12.890625 Z M 3.109375 -12.890625 "/></g></g></g><g fill="#1b1b1b" fill-opacity="1"><g transform="translate(268.404294, 199.570796)"><g><path d="M 3.109375 -1.375 L 7.625 -1.375 L 7.625 0 L 1.421875 0 L 1.421875 -12.890625 L 3.109375 -12.890625 Z M 3.109375 -1.375 "/></g></g></g></svg>